<?xml version="1.0" encoding="UTF-8" standalone="no"?>
<!DOCTYPE svg PUBLIC "-//W3C//DTD SVG 1.1//EN"
 "http://www.w3.org/Graphics/SVG/1.1/DTD/svg11.dtd">
<!-- Generated by graphviz version 2.43.0 (0)
 -->
<!-- Title: vortex_simx Pages: 1 -->
<svg width="1531pt" height="1727pt"
 viewBox="0.00 0.00 1531.00 1727.00" xmlns="http://www.w3.org/2000/svg" xmlns:xlink="http://www.w3.org/1999/xlink">
<g id="graph0" class="graph" transform="scale(1 1) rotate(0) translate(4 1723)">
<title>vortex_simx</title>
<polygon fill="white" stroke="transparent" points="-4,4 -4,-1723 1527,-1723 1527,4 -4,4"/>
<g id="clust1" class="cluster">
<title>cluster_P</title>
<polygon fill="#eef6ee" stroke="#335533" points="8,-8 8,-1604 1354,-1604 1354,-8 8,-8"/>
<text text-anchor="middle" x="681" y="-1591.2" font-family="Helvetica,sans-Serif" font-size="11.00">ProcessorImpl &#160;[sim/simx/processor_impl.h]</text>
</g>
<g id="clust2" class="cluster">
<title>cluster_CL</title>
<polygon fill="#d5ebd5" stroke="#335533" points="327,-222 327,-1576 1324,-1576 1324,-222 327,-222"/>
<text text-anchor="middle" x="825.5" y="-1563.2" font-family="Helvetica,sans-Serif" font-size="11.00">Cluster [×N_CLUSTERS] &#160;: &#160;SimObject &#160;[sim/simx/cluster.h]</text>
</g>
<g id="clust3" class="cluster">
<title>cluster_SK</title>
<polygon fill="#c2e2c2" stroke="#335533" points="471,-329 471,-1548 1316,-1548 1316,-329 471,-329"/>
<text text-anchor="middle" x="893.5" y="-1535.2" font-family="Helvetica,sans-Serif" font-size="11.00">Socket [×N_SOCKETS] &#160;: &#160;SimObject &#160;[sim/simx/socket.h]</text>
</g>
<g id="clust4" class="cluster">
<title>cluster_CO</title>
<polygon fill="#aaccaa" stroke="#335533" points="479,-436 479,-1520 1042,-1520 1042,-436 479,-436"/>
<text text-anchor="middle" x="760.5" y="-1507.2" font-family="Helvetica,sans-Serif" font-size="11.00">Core [×K_CORES] &#160;: &#160;SimObject &#160;[sim/simx/core.h L44] &#160;&#160;&#160;&#160;&#160;&#160;&#160;&#160;&#160;&#160;&#160;&#160;&#160;&#160;&#160;&#160;&#160;&#160;&#160;&#160;&#160;&#160;&#160;</text>
<text text-anchor="middle" x="760.5" y="-1495.2" font-family="Helvetica,sans-Serif" font-size="11.00">icache_req/rsp_ports &#160;· &#160;dcache_req/rsp_ports &#160;(SimPort)</text>
</g>
<!-- SimPlatform -->
<g id="node1" class="node">
<title>SimPlatform</title>
<polygon fill="#ffd700" stroke="#996600" stroke-width="2" points="1282,-1661.5 1282,-1718.5 1520,-1718.5 1520,-1661.5 1282,-1661.5"/>
<text text-anchor="middle" x="1401" y="-1706.5" font-family="Helvetica,sans-Serif" font-size="10.00">SimPlatform [sim/common/simobject.h L377]</text>
<polyline fill="none" stroke="#996600" stroke-width="2" points="1282,-1699.5 1520,-1699.5 "/>
<text text-anchor="middle" x="1401" y="-1687.5" font-family="Helvetica,sans-Serif" font-size="10.00">tick() · schedule(event, delay)</text>
<polyline fill="none" stroke="#996600" stroke-width="2" points="1282,-1680.5 1520,-1680.5 "/>
<text text-anchor="middle" x="1401" y="-1668.5" font-family="Helvetica,sans-Serif" font-size="10.00">cycles_ · imm_queue · reg_queue</text>
</g>
<!-- L3 -->
<g id="node4" class="node">
<title>L3</title>
<polygon fill="#b880cc" stroke="#440066" points="1102,-123.5 1102,-161.5 1308,-161.5 1308,-123.5 1102,-123.5"/>
<text text-anchor="middle" x="1205" y="-149.5" font-family="Helvetica,sans-Serif" font-size="10.00">CacheSim (L3) [sim/simx/cache_sim.h]</text>
<polyline fill="none" stroke="#440066" points="1102,-142.5 1308,-142.5 "/>
<text text-anchor="middle" x="1205" y="-130.5" font-family="Helvetica,sans-Serif" font-size="10.00">unified L3 cache</text>
</g>
<!-- SimPlatform&#45;&gt;L3 -->
<g id="edge2" class="edge">
<title>SimPlatform&#45;&gt;L3</title>
<path fill="none" stroke="#886600" stroke-width="2" d="M1401,-1661.18C1401,-1610.86 1401,-1501.36 1401,-1409 1401,-1409 1401,-1409 1401,-248.5 1401,-204.08 1361.41,-178.38 1317.81,-163.55"/>
<polygon fill="#886600" stroke="#886600" stroke-width="2" points="1318.76,-160.17 1308.17,-160.45 1316.62,-166.84 1318.76,-160.17"/>
<text text-anchor="middle" x="1416.5" y="-812.8" font-family="Helvetica,sans-Serif" font-size="9.00" fill="#886600"> tick() </text>
</g>
<!-- DRAM -->
<g id="node5" class="node">
<title>DRAM</title>
<polygon fill="#e87070" stroke="#660000" points="1120.5,-16.5 1120.5,-54.5 1337.5,-54.5 1337.5,-16.5 1120.5,-16.5"/>
<text text-anchor="middle" x="1229" y="-42.5" font-family="Helvetica,sans-Serif" font-size="10.00">MemSim (DRAM) [sim/simx/mem_sim.h]</text>
<polyline fill="none" stroke="#660000" points="1120.5,-35.5 1337.5,-35.5 "/>
<text text-anchor="middle" x="1229" y="-23.5" font-family="Helvetica,sans-Serif" font-size="10.00">memory simulator</text>
</g>
<!-- SimPlatform&#45;&gt;DRAM -->
<g id="edge3" class="edge">
<title>SimPlatform&#45;&gt;DRAM</title>
<path fill="none" stroke="#886600" stroke-width="2" d="M1416.44,-1661.35C1442.4,-1612.18 1492,-1505.61 1492,-1409 1492,-1409 1492,-1409 1492,-141.5 1492,-104.86 1402.84,-75.29 1328.34,-56.98"/>
<polygon fill="#886600" stroke="#886600" stroke-width="2" points="1328.95,-53.52 1318.41,-54.58 1327.31,-60.33 1328.95,-53.52"/>
<text text-anchor="middle" x="1507.5" y="-755.8" font-family="Helvetica,sans-Serif" font-size="9.00" fill="#886600"> tick() </text>
</g>
<!-- Barriers -->
<g id="node6" class="node">
<title>Barriers</title>
<polygon fill="white" stroke="black" points="451,-1426 335,-1426 335,-1390 451,-1390 451,-1426"/>
<text text-anchor="middle" x="393" y="-1410.8" font-family="Helvetica,sans-Serif" font-size="9.00">barriers_[]</text>
<text text-anchor="middle" x="393" y="-1400.8" font-family="Helvetica,sans-Serif" font-size="9.00">(CoreMask per bar_id)</text>
</g>
<!-- SimPlatform&#45;&gt;Barriers -->
<g id="edge1" class="edge">
<title>SimPlatform&#45;&gt;Barriers</title>
<path fill="none" stroke="#886600" stroke-width="2" d="M1281.92,-1688.81C1046.61,-1687.4 539.25,-1678.9 476,-1632 459.14,-1619.5 445.7,-1603.17 434.99,-1585.04"/>
<polygon fill="#886600" stroke="#886600" stroke-width="2" points="437.88,-1583.02 429.95,-1576 431.76,-1586.43 437.88,-1583.02"/>
<text text-anchor="middle" x="530" y="-1619.8" font-family="Helvetica,sans-Serif" font-size="9.00" fill="#886600"> tick() → all SimObjects </text>
</g>
<!-- Arch -->
<g id="node2" class="node">
<title>Arch</title>
<polygon fill="white" stroke="black" points="298.5,-1426 179.5,-1426 179.5,-1390 298.5,-1390 298.5,-1426"/>
<text text-anchor="middle" x="239" y="-1410.8" font-family="Helvetica,sans-Serif" font-size="9.00">Arch</text>
<text text-anchor="middle" x="239" y="-1400.8" font-family="Helvetica,sans-Serif" font-size="9.00">(ISA / topology config)</text>
</g>
<!-- DCRS -->
<g id="node3" class="node">
<title>DCRS</title>
<polygon fill="white" stroke="black" points="143.5,-1426 16.5,-1426 16.5,-1390 143.5,-1390 143.5,-1426"/>
<text text-anchor="middle" x="80" y="-1410.8" font-family="Helvetica,sans-Serif" font-size="9.00">DCRS</text>
<text text-anchor="middle" x="80" y="-1400.8" font-family="Helvetica,sans-Serif" font-size="9.00">(device config registers)</text>
</g>
<!-- L3&#45;&gt;DRAM -->
<g id="edge17" class="edge">
<title>L3&#45;&gt;DRAM</title>
<path fill="none" stroke="#0055aa" stroke-width="2" d="M1209.18,-123.21C1212.88,-107.02 1218.34,-83.16 1222.59,-64.56"/>
<polygon fill="#0055aa" stroke="#0055aa" stroke-width="2" points="1226.05,-65.11 1224.87,-54.58 1219.23,-63.55 1226.05,-65.11"/>
<text text-anchor="middle" x="1230.5" y="-86.8" font-family="Helvetica,sans-Serif" font-size="9.00" fill="#0055aa"> miss </text>
</g>
<!-- EMU -->
<g id="node10" class="node">
<title>EMU</title>
<polygon fill="#f09060" stroke="#993300" points="788.5,-1368.5 788.5,-1447.5 1033.5,-1447.5 1033.5,-1368.5 788.5,-1368.5"/>
<text text-anchor="middle" x="911" y="-1435.5" font-family="Helvetica,sans-Serif" font-size="10.00">Emulator [sim/simx/emulator.h]</text>
<polyline fill="none" stroke="#993300" points="788.5,-1428.5 1033.5,-1428.5 "/>
<text text-anchor="start" x="796.5" y="-1416.5" font-family="Helvetica,sans-Serif" font-size="10.00">step() · fetch() · decode() · execute() </text>
<text text-anchor="start" x="796.5" y="-1405.5" font-family="Helvetica,sans-Serif" font-size="10.00">icache_read() · dcache_read() · dcache_write() </text>
<polyline fill="none" stroke="#993300" points="788.5,-1398.5 1033.5,-1398.5 "/>
<text text-anchor="start" x="796.5" y="-1386.5" font-family="Helvetica,sans-Serif" font-size="10.00">warps_[] : warp_t · mmu_ </text>
<text text-anchor="middle" x="911" y="-1375.5" font-family="Helvetica,sans-Serif" font-size="10.00">active_warps_ · stalled_warps_ · barriers_[]</text>
</g>
<!-- Barriers&#45;&gt;EMU -->
<g id="edge21" class="edge">
<title>Barriers&#45;&gt;EMU</title>
<path fill="none" stroke="darkorange" stroke-width="2" stroke-dasharray="5,2" d="M395.29,-1426.06C400.85,-1461.26 418.58,-1538.42 470,-1571 565.74,-1631.66 618.92,-1610.9 725,-1571 752.18,-1560.78 777.97,-1544.58 801.23,-1526.28"/>
<polygon fill="darkorange" stroke="darkorange" stroke-width="2" points="803.43,-1529 809.01,-1520 799.03,-1523.55 803.43,-1529"/>
<text text-anchor="middle" x="630" y="-1624.8" font-family="Helvetica,sans-Serif" font-size="9.00" fill="darkorange"> resume_warp()</text>
<text text-anchor="middle" x="630" y="-1614.8" font-family="Helvetica,sans-Serif" font-size="9.00" fill="darkorange">on stalled cores </text>
</g>
<!-- L2 -->
<g id="node7" class="node">
<title>L2</title>
<polygon fill="#c096cc" stroke="#440066" points="1131.5,-230.5 1131.5,-268.5 1226.5,-268.5 1226.5,-230.5 1131.5,-230.5"/>
<text text-anchor="middle" x="1179" y="-256.5" font-family="Helvetica,sans-Serif" font-size="10.00">CacheSim (L2)</text>
<polyline fill="none" stroke="#440066" points="1131.5,-249.5 1226.5,-249.5 "/>
<text text-anchor="middle" x="1179" y="-237.5" font-family="Helvetica,sans-Serif" font-size="10.00">unified L2 cache</text>
</g>
<!-- L2&#45;&gt;L3 -->
<g id="edge16" class="edge">
<title>L2&#45;&gt;L3</title>
<path fill="none" stroke="#0055aa" stroke-width="2" d="M1183.53,-230.21C1187.56,-213.95 1193.5,-189.93 1198.12,-171.3"/>
<polygon fill="#0055aa" stroke="#0055aa" stroke-width="2" points="1201.52,-172.13 1200.52,-161.58 1194.72,-170.45 1201.52,-172.13"/>
<text text-anchor="middle" x="1205.5" y="-193.8" font-family="Helvetica,sans-Serif" font-size="9.00" fill="#0055aa"> miss </text>
</g>
<!-- IC -->
<g id="node8" class="node">
<title>IC</title>
<polygon fill="#7aaac4" stroke="black" points="1050.5,-1214 1050.5,-1252 1307.5,-1252 1307.5,-1214 1050.5,-1214"/>
<text text-anchor="middle" x="1179" y="-1240" font-family="Helvetica,sans-Serif" font-size="10.00">CacheCluster (icache) [sim/simx/cache_cluster.h]</text>
<polyline fill="none" stroke="black" points="1050.5,-1233 1307.5,-1233 "/>
<text text-anchor="middle" x="1179" y="-1221" font-family="Helvetica,sans-Serif" font-size="10.00">L1&#45;I × K cores</text>
</g>
<!-- IC&#45;&gt;L2 -->
<g id="edge14" class="edge">
<title>IC&#45;&gt;L2</title>
<path fill="none" stroke="#0055aa" stroke-width="2" d="M1179,-1213.87C1179,-1185.52 1179,-1128.97 1179,-1081 1179,-1081 1179,-1081 1179,-355.5 1179,-329.58 1179,-300.05 1179,-278.93"/>
<polygon fill="#0055aa" stroke="#0055aa" stroke-width="2" points="1182.5,-278.71 1179,-268.71 1175.5,-278.71 1182.5,-278.71"/>
<text text-anchor="middle" x="1192.5" y="-755.8" font-family="Helvetica,sans-Serif" font-size="9.00" fill="#0055aa"> miss </text>
</g>
<!-- DC -->
<g id="node9" class="node">
<title>DC</title>
<polygon fill="#7aaac4" stroke="black" points="762,-337.5 762,-375.5 1022,-375.5 1022,-337.5 762,-337.5"/>
<text text-anchor="middle" x="892" y="-363.5" font-family="Helvetica,sans-Serif" font-size="10.00">CacheCluster (dcache) [sim/simx/cache_cluster.h]</text>
<polyline fill="none" stroke="black" points="762,-356.5 1022,-356.5 "/>
<text text-anchor="middle" x="892" y="-344.5" font-family="Helvetica,sans-Serif" font-size="10.00">L1&#45;D × K cores</text>
</g>
<!-- DC&#45;&gt;L2 -->
<g id="edge15" class="edge">
<title>DC&#45;&gt;L2</title>
<path fill="none" stroke="#0055aa" stroke-width="2" d="M941.34,-337.45C991.43,-319.12 1068.93,-290.77 1121.71,-271.46"/>
<polygon fill="#0055aa" stroke="#0055aa" stroke-width="2" points="1123.07,-274.69 1131.26,-267.97 1120.67,-268.11 1123.07,-274.69"/>
<text text-anchor="middle" x="1057.5" y="-300.8" font-family="Helvetica,sans-Serif" font-size="9.00" fill="#0055aa"> miss </text>
</g>
<!-- EMU&#45;&gt;DRAM -->
<g id="edge18" class="edge">
<title>EMU&#45;&gt;DRAM</title>
<path fill="none" stroke="red" stroke-width="2" stroke-dasharray="5,2" d="M1033.57,-1395C1128.86,-1383.9 1251.87,-1365.16 1295,-1339 1313.7,-1327.66 1317.96,-1320.7 1325,-1300 1344.18,-1243.62 1327.51,-1225.5 1325,-1166 1316.99,-976.16 1319.38,-927.56 1289,-740 1286.88,-726.91 1283.57,-724.17 1282,-711 1253.08,-467.93 1315.65,-406.56 1326,-162 1326.73,-144.68 1333.09,-138.82 1326,-123 1314.32,-96.94 1290.48,-75.51 1269.36,-60.49"/>
<polygon fill="red" stroke="red" stroke-width="2" points="1271.05,-57.41 1260.82,-54.66 1267.1,-63.19 1271.05,-57.41"/>
<text text-anchor="middle" x="1327.5" y="-703.8" font-family="Helvetica,sans-Serif" font-size="9.00" fill="red"> mmu_.read/write()</text>
<text text-anchor="middle" x="1327.5" y="-693.8" font-family="Helvetica,sans-Serif" font-size="9.00" fill="red">(functional bypass –</text>
<text text-anchor="middle" x="1327.5" y="-683.8" font-family="Helvetica,sans-Serif" font-size="9.00" fill="red">data values only) </text>
</g>
<!-- EMU&#45;&gt;IC -->
<g id="edge12" class="edge">
<title>EMU&#45;&gt;IC</title>
<path fill="none" stroke="#0055aa" stroke-width="2" d="M975.32,-1368.46C989.93,-1359.18 1005.2,-1349.03 1019,-1339 1024.62,-1334.92 1025.4,-1333.11 1031,-1329 1066.74,-1302.79 1109.54,-1275.76 1139.9,-1257.26"/>
<polygon fill="#0055aa" stroke="#0055aa" stroke-width="2" points="1141.77,-1260.22 1148.51,-1252.04 1138.14,-1254.24 1141.77,-1260.22"/>
<text text-anchor="middle" x="1072.5" y="-1331.8" font-family="Helvetica,sans-Serif" font-size="9.00" fill="#0055aa"> icache_req_ports </text>
</g>
<!-- WT -->
<g id="node11" class="node">
<title>WT</title>
<polygon fill="#fdd0c0" stroke="black" points="487,-1390 487,-1426 707,-1426 707,-1390 487,-1390"/>
<text text-anchor="middle" x="597" y="-1414.8" font-family="Helvetica,sans-Serif" font-size="9.00">warp_t (per&#45;warp SIMT state)</text>
<polyline fill="none" stroke="black" points="487,-1408 707,-1408 "/>
<text text-anchor="middle" x="597" y="-1396.8" font-family="Helvetica,sans-Serif" font-size="9.00">ireg_file · freg_file · tmask · PC · ipdom_stack</text>
</g>
<!-- EMU&#45;&gt;WT -->
<g id="edge19" class="edge">
<title>EMU&#45;&gt;WT</title>
</g>
<!-- PIPE -->
<g id="node12" class="node">
<title>PIPE</title>
<polygon fill="#fffa70" stroke="#888800" points="772,-1166.5 772,-1299.5 1014,-1299.5 1014,-1166.5 772,-1166.5"/>
<text text-anchor="middle" x="893" y="-1287.5" font-family="Helvetica,sans-Serif" font-size="10.00">Core pipeline stages [sim/simx/core.cpp L205]</text>
<polyline fill="none" stroke="#888800" points="772,-1280.5 1014,-1280.5 "/>
<text text-anchor="middle" x="893" y="-1268.5" font-family="Helvetica,sans-Serif" font-size="10.00">schedule</text>
<polyline fill="none" stroke="#888800" points="772,-1261.5 1014,-1261.5 "/>
<text text-anchor="middle" x="893" y="-1249.5" font-family="Helvetica,sans-Serif" font-size="10.00">fetch</text>
<polyline fill="none" stroke="#888800" points="772,-1242.5 1014,-1242.5 "/>
<text text-anchor="middle" x="893" y="-1230.5" font-family="Helvetica,sans-Serif" font-size="10.00">decode</text>
<polyline fill="none" stroke="#888800" points="772,-1223.5 1014,-1223.5 "/>
<text text-anchor="middle" x="893" y="-1211.5" font-family="Helvetica,sans-Serif" font-size="10.00">issue</text>
<polyline fill="none" stroke="#888800" points="772,-1204.5 1014,-1204.5 "/>
<text text-anchor="middle" x="893" y="-1192.5" font-family="Helvetica,sans-Serif" font-size="10.00">execute</text>
<polyline fill="none" stroke="#888800" points="772,-1185.5 1014,-1185.5 "/>
<text text-anchor="middle" x="893" y="-1173.5" font-family="Helvetica,sans-Serif" font-size="10.00">commit</text>
</g>
<!-- EMU&#45;&gt;PIPE -->
<g id="edge4" class="edge">
<title>EMU&#45;&gt;PIPE</title>
<path fill="none" stroke="black" d="M905.55,-1368.2C904.3,-1358.66 903.03,-1348.47 902,-1339 900.97,-1329.55 899.99,-1319.61 899.08,-1309.77"/>
<polygon fill="black" stroke="black" points="902.54,-1309.22 898.15,-1299.58 895.57,-1309.85 902.54,-1309.22"/>
<text text-anchor="middle" x="956" y="-1331.8" font-family="Helvetica,sans-Serif" font-size="9.00"> step() → instr_trace_t* </text>
</g>
<!-- IBUF -->
<g id="node13" class="node">
<title>IBUF</title>
<polygon fill="#fffacd" stroke="black" points="966.5,-1098 819.5,-1098 819.5,-1062 966.5,-1062 966.5,-1098"/>
<text text-anchor="middle" x="893" y="-1082.8" font-family="Helvetica,sans-Serif" font-size="9.00">IBuffer[]</text>
<text text-anchor="middle" x="893" y="-1072.8" font-family="Helvetica,sans-Serif" font-size="9.00">(per&#45;warp instruction queue)</text>
</g>
<!-- PIPE&#45;&gt;IBUF -->
<g id="edge5" class="edge">
<title>PIPE&#45;&gt;IBUF</title>
<path fill="none" stroke="black" d="M872.48,-1166.4C870.65,-1153.33 870.35,-1139.72 873,-1127 874.35,-1120.51 876.67,-1113.81 879.25,-1107.6"/>
<polygon fill="black" stroke="black" points="882.51,-1108.9 883.44,-1098.35 876.13,-1106.02 882.51,-1108.9"/>
<text text-anchor="middle" x="888" y="-1129.8" font-family="Helvetica,sans-Serif" font-size="9.00"> fetch </text>
</g>
<!-- SCRB -->
<g id="node14" class="node">
<title>SCRB</title>
<polygon fill="#fffacd" stroke="black" points="952.5,-994 833.5,-994 833.5,-958 952.5,-958 952.5,-994"/>
<text text-anchor="middle" x="893" y="-978.8" font-family="Helvetica,sans-Serif" font-size="9.00">Scoreboard</text>
<text text-anchor="middle" x="893" y="-968.8" font-family="Helvetica,sans-Serif" font-size="9.00">(RAW hazard tracking)</text>
</g>
<!-- IBUF&#45;&gt;SCRB -->
<g id="edge6" class="edge">
<title>IBUF&#45;&gt;SCRB</title>
<path fill="none" stroke="black" d="M878.41,-1061.86C872.38,-1053.68 866.1,-1043.42 863,-1033 859.9,-1022.58 863.63,-1011.89 869.39,-1002.68"/>
<polygon fill="black" stroke="black" points="872.38,-1004.52 875.38,-994.36 866.7,-1000.43 872.38,-1004.52"/>
<text text-anchor="middle" x="883" y="-1025.8" font-family="Helvetica,sans-Serif" font-size="9.00"> decode </text>
</g>
<!-- OPS -->
<g id="node15" class="node">
<title>OPS</title>
<polygon fill="#fffacd" stroke="black" points="944.5,-890 841.5,-890 841.5,-854 944.5,-854 944.5,-890"/>
<text text-anchor="middle" x="893" y="-874.8" font-family="Helvetica,sans-Serif" font-size="9.00">Operands[]</text>
<text text-anchor="middle" x="893" y="-864.8" font-family="Helvetica,sans-Serif" font-size="9.00">(register file reads)</text>
</g>
<!-- SCRB&#45;&gt;OPS -->
<g id="edge7" class="edge">
<title>SCRB&#45;&gt;OPS</title>
<path fill="none" stroke="black" d="M882.09,-957.67C876.5,-946.77 871.36,-932.29 874,-919 875.28,-912.55 877.48,-905.87 879.94,-899.66"/>
<polygon fill="black" stroke="black" points="883.18,-900.97 883.92,-890.4 876.75,-898.21 883.18,-900.97"/>
<text text-anchor="middle" x="888.5" y="-921.8" font-family="Helvetica,sans-Serif" font-size="9.00"> issue </text>
</g>
<!-- DISP -->
<g id="node16" class="node">
<title>DISP</title>
<polygon fill="#fffacd" stroke="black" points="958,-776 828,-776 828,-740 958,-740 958,-776"/>
<text text-anchor="middle" x="893" y="-760.8" font-family="Helvetica,sans-Serif" font-size="9.00">Dispatcher[]</text>
<text text-anchor="middle" x="893" y="-750.8" font-family="Helvetica,sans-Serif" font-size="9.00">(route trace to FuncUnit)</text>
</g>
<!-- OPS&#45;&gt;DISP -->
<g id="edge8" class="edge">
<title>OPS&#45;&gt;DISP</title>
<path fill="none" stroke="black" d="M874.35,-853.82C862.7,-840.91 850.96,-822.52 857,-805 859.55,-797.62 863.82,-790.51 868.54,-784.19"/>
<polygon fill="black" stroke="black" points="871.54,-786.06 875.16,-776.1 866.12,-781.63 871.54,-786.06"/>
<text text-anchor="middle" x="880" y="-817.8" font-family="Helvetica,sans-Serif" font-size="9.00"> operands</text>
<text text-anchor="middle" x="880" y="-807.8" font-family="Helvetica,sans-Serif" font-size="9.00">ready </text>
</g>
<!-- FUS -->
<g id="node17" class="node">
<title>FUS</title>
<polygon fill="#60aadc" stroke="#003366" points="796,-556.5 796,-651.5 990,-651.5 990,-556.5 796,-556.5"/>
<text text-anchor="middle" x="893" y="-639.5" font-family="Helvetica,sans-Serif" font-size="10.00">FuncUnit [] [sim/simx/func_unit.cpp]</text>
<polyline fill="none" stroke="#003366" points="796,-632.5 990,-632.5 "/>
<text text-anchor="middle" x="893" y="-620.5" font-family="Helvetica,sans-Serif" font-size="10.00">AluUnit</text>
<polyline fill="none" stroke="#003366" points="796,-613.5 990,-613.5 "/>
<text text-anchor="middle" x="893" y="-601.5" font-family="Helvetica,sans-Serif" font-size="10.00">FpuUnit</text>
<polyline fill="none" stroke="#003366" points="796,-594.5 990,-594.5 "/>
<text text-anchor="middle" x="893" y="-582.5" font-family="Helvetica,sans-Serif" font-size="10.00">LsuUnit [L175]</text>
<polyline fill="none" stroke="#003366" points="796,-575.5 990,-575.5 "/>
<text text-anchor="middle" x="893" y="-563.5" font-family="Helvetica,sans-Serif" font-size="10.00">SfuUnit [L346]</text>
</g>
<!-- DISP&#45;&gt;FUS -->
<g id="edge9" class="edge">
<title>DISP&#45;&gt;FUS</title>
<path fill="none" stroke="black" d="M875.16,-739.9C868.06,-731.88 860.7,-721.74 857,-711 851.41,-694.8 853.95,-677.18 859.67,-661.04"/>
<polygon fill="black" stroke="black" points="862.93,-662.32 863.37,-651.73 856.43,-659.73 862.93,-662.32"/>
<text text-anchor="middle" x="880" y="-693.8" font-family="Helvetica,sans-Serif" font-size="9.00"> dispatch </text>
</g>
<!-- FUS&#45;&gt;Barriers -->
<g id="edge20" class="edge">
<title>FUS&#45;&gt;Barriers</title>
<path fill="none" stroke="darkorange" stroke-width="2" stroke-dasharray="5,2" d="M479,-1267C447.98,-1317.38 423.58,-1357.12 408.82,-1381.19"/>
<polygon fill="darkorange" stroke="darkorange" stroke-width="2" points="405.79,-1379.43 403.55,-1389.78 411.76,-1383.09 405.79,-1379.43"/>
<text text-anchor="middle" x="710" y="-983.8" font-family="Helvetica,sans-Serif" font-size="9.00" fill="darkorange"> SfuUnit:</text>
<text text-anchor="middle" x="710" y="-973.8" font-family="Helvetica,sans-Serif" font-size="9.00" fill="darkorange">core→socket</text>
<text text-anchor="middle" x="710" y="-963.8" font-family="Helvetica,sans-Serif" font-size="9.00" fill="darkorange">→cluster barrier() </text>
</g>
<!-- MC -->
<g id="node18" class="node">
<title>MC</title>
<polygon fill="#88c4f0" stroke="black" points="842.5,-480 699.5,-480 699.5,-444 842.5,-444 842.5,-480"/>
<text text-anchor="middle" x="771" y="-464.8" font-family="Helvetica,sans-Serif" font-size="9.00">MemCoalescer[]</text>
<text text-anchor="middle" x="771" y="-454.8" font-family="Helvetica,sans-Serif" font-size="9.00">(thread address coalescing)</text>
</g>
<!-- FUS&#45;&gt;MC -->
<g id="edge10" class="edge">
<title>FUS&#45;&gt;MC</title>
<path fill="none" stroke="black" d="M837.68,-556.42C827.96,-547.13 818.32,-537.11 810,-527 800.38,-515.31 791.45,-501.03 784.57,-488.92"/>
<polygon fill="black" stroke="black" points="787.63,-487.22 779.73,-480.17 781.51,-490.61 787.63,-487.22"/>
<text text-anchor="middle" x="844.5" y="-515.8" font-family="Helvetica,sans-Serif" font-size="9.00"> LSU mem req </text>
</g>
<!-- LM -->
<g id="node19" class="node">
<title>LM</title>
<polygon fill="#88c4f0" stroke="black" points="1033.5,-480 878.5,-480 878.5,-444 1033.5,-444 1033.5,-480"/>
<text text-anchor="middle" x="956" y="-464.8" font-family="Helvetica,sans-Serif" font-size="9.00">LocalMem</text>
<text text-anchor="middle" x="956" y="-454.8" font-family="Helvetica,sans-Serif" font-size="9.00">(shared memory / scratchpad)</text>
</g>
<!-- FUS&#45;&gt;LM -->
<g id="edge11" class="edge">
<title>FUS&#45;&gt;LM</title>
<path fill="none" stroke="black" d="M886.02,-556.05C885.71,-540.35 887.71,-523.24 895,-509 899.48,-500.24 906.49,-492.7 914.18,-486.4"/>
<polygon fill="black" stroke="black" points="916.77,-488.83 922.7,-480.05 912.59,-483.22 916.77,-488.83"/>
<text text-anchor="middle" x="914.5" y="-520.6" font-family="Helvetica,sans-Serif" font-size="8.00"> local</text>
<text text-anchor="middle" x="914.5" y="-511.6" font-family="Helvetica,sans-Serif" font-size="8.00">mem req </text>
</g>
<!-- MC&#45;&gt;DC -->
<g id="edge13" class="edge">
<title>MC&#45;&gt;DC</title>
<path fill="none" stroke="#0055aa" stroke-width="2" d="M758.45,-443.8C751.51,-432.02 745.8,-416.5 754,-405 761.31,-394.75 770.99,-386.68 781.84,-380.35"/>
<polygon fill="#0055aa" stroke="#0055aa" stroke-width="2" points="783.56,-383.4 790.77,-375.63 780.29,-377.21 783.56,-383.4"/>
<text text-anchor="middle" x="797.5" y="-407.8" font-family="Helvetica,sans-Serif" font-size="9.00" fill="#0055aa"> dcache_req_ports </text>
</g>
</g>
</svg>
